<svg xmlns="http://www.w3.org/2000/svg" viewBox="0 0 100 100">
  <defs>
    <linearGradient id="virusGradient" x1="0%" y1="0%" x2="100%" y2="100%">
      <stop offset="0%" style="stop-color:#6366f1;stop-opacity:1" />
      <stop offset="100%" style="stop-color:#8b5cf6;stop-opacity:1" />
    </linearGradient>
  </defs>
  
  <!-- Central virus body -->
  <circle cx="50" cy="50" r="20" fill="url(#virusGradient)" />
  
  <!-- Spike proteins (8 spikes around the virus) -->
  <!-- Top -->
  <circle cx="50" cy="20" r="4" fill="#ec4899" />
  <line x1="50" y1="30" x2="50" y2="22" stroke="#ec4899" stroke-width="2.5" stroke-linecap="round" />
  
  <!-- Top-right -->
  <circle cx="64" cy="26" r="4" fill="#f59e0b" />
  <line x1="60" y1="38" x2="63" y2="29" stroke="#f59e0b" stroke-width="2.5" stroke-linecap="round" />
  
  <!-- Right -->
  <circle cx="80" cy="50" r="4" fill="#10b981" />
  <line x1="70" y1="50" x2="78" y2="50" stroke="#10b981" stroke-width="2.5" stroke-linecap="round" />
  
  <!-- Bottom-right -->
  <circle cx="64" cy="74" r="4" fill="#06b6d4" />
  <line x1="60" y1="62" x2="63" y2="71" stroke="#06b6d4" stroke-width="2.5" stroke-linecap="round" />
  
  <!-- Bottom -->
  <circle cx="50" cy="80" r="4" fill="#8b5cf6" />
  <line x1="50" y1="70" x2="50" y2="78" stroke="#8b5cf6" stroke-width="2.5" stroke-linecap="round" />
  
  <!-- Bottom-left -->
  <circle cx="36" cy="74" r="4" fill="#ec4899" />
  <line x1="40" y1="62" x2="37" y2="71" stroke="#ec4899" stroke-width="2.5" stroke-linecap="round" />
  
  <!-- Left -->
  <circle cx="20" cy="50" r="4" fill="#f59e0b" />
  <line x1="30" y1="50" x2="22" y2="50" stroke="#f59e0b" stroke-width="2.5" stroke-linecap="round" />
  
  <!-- Top-left -->
  <circle cx="36" cy="26" r="4" fill="#10b981" />
  <line x1="40" y1="38" x2="37" y2="29" stroke="#10b981" stroke-width="2.5" stroke-linecap="round" />
  
  <!-- Inner details -->
  <circle cx="45" cy="45" r="3" fill="#c084fc" opacity="0.6" />
  <circle cx="55" cy="48" r="2.5" fill="#c084fc" opacity="0.6" />
  <circle cx="48" cy="53" r="2" fill="#c084fc" opacity="0.6" />
  <circle cx="54" cy="55" r="2.5" fill="#c084fc" opacity="0.6" />
</svg>
